HIERARCHY
ROOT hip
{
  OFFSET 0.00112043 5.09927 -9.65472
  CHANNELS 6 Xposition Yposition Zposition Zrotation Xrotation Yrotation
  JOINT abdomen
  {
    OFFSET 0 -1.186 -1.5018
    CHANNELS 3 Zrotation Xrotation Yrotation
    JOINT abdomen2
    {
      OFFSET 0 9.964 0.2134
      CHANNELS 3 Zrotation Xrotation Yrotation
      JOINT chest
      {
        OFFSET 0 13.134 -3.2573
        CHANNELS 3 Zrotation Xrotation Yrotation
        JOINT neck
        {
          OFFSET 0 20.686 -1.6905
          CHANNELS 3 Zrotation Xrotation Yrotation
          JOINT head
          {
            OFFSET 0 7.238 -0.1237
            CHANNELS 3 Zrotation Xrotation Yrotation
            End Site
            {
              OFFSET 0 0 0
            }
          }
        }
        JOINT lCollar
        {
          OFFSET 1.7069 20.075 5.0056
          CHANNELS 3 Zrotation Xrotation Yrotation
          JOINT lShldr
          {
            OFFSET 13.6458 -0.047 -4.849
            CHANNELS 3 Zrotation Xrotation Yrotation
            JOINT lForeArm
            {
              OFFSET 28.3255 -0.9759 2.2888
              CHANNELS 3 Zrotation Xrotation Yrotation
              JOINT lHand
              {
                OFFSET 22.1583 -0.53 10.8316
                CHANNELS 3 Zrotation Xrotation Yrotation
                JOINT lThumb1
                {
                  OFFSET 0.786 0.112 2.5817
                  CHANNELS 3 Zrotation Xrotation Yrotation
                  JOINT lThumb2
                  {
                    OFFSET 0.3601 -0.878 4.2331
                    CHANNELS 3 Zrotation Xrotation Yrotation
                    JOINT lThumb2_End
                    {
                      OFFSET 1.8127 -1.216 2.2227
                      CHANNELS 3 Zrotation Xrotation Yrotation
                      End Site
                      {
                        OFFSET 0.0181 -0.0122 0.0222
                      }
                    }
                  }
                }
                JOINT lCarpal1
                {
                  OFFSET 0.9571 1.114 1.7695
                  CHANNELS 3 Zrotation Xrotation Yrotation
                  JOINT lIndex1
                  {
                    OFFSET 4.1246 0.487 4.1451
                    CHANNELS 3 Zrotation Xrotation Yrotation
                    JOINT lIndex2
                    {
                      OFFSET 3.4052 -1.454 2.7682
                      CHANNELS 3 Zrotation Xrotation Yrotation
                      JOINT lIndex2_End
                      {
                        OFFSET 1.4531 -1.795 1.2713
                        CHANNELS 3 Zrotation Xrotation Yrotation
                        End Site
                        {
                          OFFSET 0.0145 -0.0179 0.0127
                        }
                      }
                    }
                  }
                  JOINT lMid1
                  {
                    OFFSET 5.6954 0.21 2.1184
                    CHANNELS 3 Zrotation Xrotation Yrotation
                    JOINT lMid2
                    {
                      OFFSET 3.9766 -1.54 2.3863
                      CHANNELS 3 Zrotation Xrotation Yrotation
                      JOINT lMid2_End
                      {
                        OFFSET 1.4042 -1.926 1.125
                        CHANNELS 3 Zrotation Xrotation Yrotation
                        End Site
                        {
                          OFFSET 0.014 -0.0193 0.0113
                        }
                      }
                    }
                  }
                }
                JOINT lCarpal2
                {
                  OFFSET 2.0956 0.66 -0.3894
                  CHANNELS 3 Zrotation Xrotation Yrotation
                  JOINT lRing1
                  {
                    OFFSET 5.0395 -0.09 2.4971
                    CHANNELS 3 Zrotation Xrotation Yrotation
                    JOINT lRing2
                    {
                      OFFSET 3.7921 -1.552 1.4806
                      CHANNELS 3 Zrotation Xrotation Yrotation
                      JOINT lRing2_End
                      {
                        OFFSET 1.4655 -1.808 0.9609
                        CHANNELS 3 Zrotation Xrotation Yrotation
                        End Site
                        {
                          OFFSET 0.0147 -0.0181 0.0096
                        }
                      }
                    }
                  }
                  JOINT lPinky1
                  {
                    OFFSET 4.9141 -1.269 0.3591
                    CHANNELS 3 Zrotation Xrotation Yrotation
                    JOINT lPinky2
                    {
                      OFFSET 3.1477 -1.685 0.8462
                      CHANNELS 3 Zrotation Xrotation Yrotation
                      JOINT lPinky2_End
                      {
                        OFFSET 0.8055 -1.585 0.7955
                        CHANNELS 3 Zrotation Xrotation Yrotation
                        End Site
                        {
                          OFFSET 0.0081 -0.0158 0.008
                        }
                      }
                    }
                  }
                }
              }
            }
          }
        }
        JOINT rCollar
        {
          OFFSET -1.7069 20.075 5.0056
          CHANNELS 3 Zrotation Xrotation Yrotation
          JOINT rShldr
          {
            OFFSET -13.6458 -0.047 -4.849
            CHANNELS 3 Zrotation Xrotation Yrotation
            JOINT rForeArm
            {
              OFFSET -28.3255 -0.9759 2.2888
              CHANNELS 3 Zrotation Xrotation Yrotation
              JOINT rHand
              {
                OFFSET -22.1583 -0.53 10.8316
                CHANNELS 3 Zrotation Xrotation Yrotation
                JOINT rThumb1
                {
                  OFFSET -0.786 0.112 2.5817
                  CHANNELS 3 Zrotation Xrotation Yrotation
                  JOINT rThumb2
                  {
                    OFFSET -0.3601 -0.878 4.2331
                    CHANNELS 3 Zrotation Xrotation Yrotation
                    JOINT rThumb2_End
                    {
                      OFFSET -1.8127 -1.216 2.2227
                      CHANNELS 3 Zrotation Xrotation Yrotation
                      End Site
                      {
                        OFFSET -0.0181 -0.0122 0.0222
                      }
                    }
                  }
                }
                JOINT rCarpal1
                {
                  OFFSET -0.9571 1.114 1.7695
                  CHANNELS 3 Zrotation Xrotation Yrotation
                  JOINT rIndex1
                  {
                    OFFSET -4.1246 0.487 4.1451
                    CHANNELS 3 Zrotation Xrotation Yrotation
                    JOINT rIndex2
                    {
                      OFFSET -3.4052 -1.454 2.7682
                      CHANNELS 3 Zrotation Xrotation Yrotation
                      JOINT rIndex2_End
                      {
                        OFFSET -1.4531 -1.795 1.2713
                        CHANNELS 3 Zrotation Xrotation Yrotation
                        End Site
                        {
                          OFFSET -0.0145 -0.018 0.0127
                        }
                      }
                    }
                  }
                  JOINT rMid1
                  {
                    OFFSET -5.6954 0.21 2.1184
                    CHANNELS 3 Zrotation Xrotation Yrotation
                    JOINT rMid2
                    {
                      OFFSET -3.9766 -1.54 2.3863
                      CHANNELS 3 Zrotation Xrotation Yrotation
                      JOINT rMid2_End
                      {
                        OFFSET -1.4042 -1.926 1.125
                        CHANNELS 3 Zrotation Xrotation Yrotation
                        End Site
                        {
                          OFFSET -0.014 -0.0193 0.0113
                        }
                      }
                    }
                  }
                }
                JOINT rCarpal2
                {
                  OFFSET -2.0956 0.66 -0.3894
                  CHANNELS 3 Zrotation Xrotation Yrotation
                  JOINT rRing1
                  {
                    OFFSET -5.0395 -0.09 2.4971
                    CHANNELS 3 Zrotation Xrotation Yrotation
                    JOINT rRing2
                    {
                      OFFSET -3.7921 -1.552 1.4806
                      CHANNELS 3 Zrotation Xrotation Yrotation
                      JOINT rRing2_End
                      {
                        OFFSET -1.4655 -1.808 0.9609
                        CHANNELS 3 Zrotation Xrotation Yrotation
                        End Site
                        {
                          OFFSET -0.0147 -0.0181 0.0096
                        }
                      }
                    }
                  }
                  JOINT rPinky1
                  {
                    OFFSET -4.9141 -1.269 0.3592
                    CHANNELS 3 Zrotation Xrotation Yrotation
                    JOINT rPinky2
                    {
                      OFFSET -3.1477 -1.685 0.8462
                      CHANNELS 3 Zrotation Xrotation Yrotation
                      JOINT rPinky2_End
                      {
                        OFFSET -0.8055 -1.585 0.7955
                        CHANNELS 3 Zrotation Xrotation Yrotation
                        End Site
                        {
                          OFFSET -0.0081 -0.0158 0.008
                        }
                      }
                    }
                  }
                }
              }
            }
          }
        }
      }
    }
  }
  JOINT lThigh
  {
    OFFSET 8.367 -8.2066 0.5982
    CHANNELS 3 Zrotation Xrotation Yrotation
    JOINT lShin
    {
      OFFSET 2.1923 -43.463 -0.4932
      CHANNELS 3 Zrotation Xrotation Yrotation
      JOINT lFoot
      {
        OFFSET 0.7333 -45.8593 -2.6451
        CHANNELS 3 Zrotation Xrotation Yrotation
        End Site
        {
          OFFSET 2.6618 -4.2699 12.3931
        }
      }
    }
  }
  JOINT rThigh
  {
    OFFSET -8.367 -8.2066 0.5982
    CHANNELS 3 Zrotation Xrotation Yrotation
    JOINT rShin
    {
      OFFSET -2.1923 -43.463 -0.4931
      CHANNELS 3 Zrotation Xrotation Yrotation
      JOINT rFoot
      {
        OFFSET -0.7333 -45.8593 -2.6451
        CHANNELS 3 Zrotation Xrotation Yrotation
        End Site
        {
          OFFSET -2.6618 -4.2699 12.3931
        }
      }
    }
  }
}
MOTION
Frames:	4
Frame Time:	0.0333333
0 91.7903 2.51682 0 0 -0 0 0 -0 0 0 -0 0 0 -0 0 0 -0 0 0 -0 0 0 -0 1.66051 0.0835086 5.75766 -0.0175111 0.895433 15.7816 7.95139e-016 -1.98785e-016 -0 5.46658e-016 -3.97569e-016 -0 5.96354e-016 0 -0 3.97569e-016 1.98785e-016 9.54166e-015 1.49089e-016 -3.97569e-016 -0 6.4605e-016 0 3.18055e-015 5.96354e-016 0 3.18055e-015 8.94531e-016 -1.98785e-016 6.36111e-015 6.4605e-016 0 3.18055e-015 5.96354e-016 0 3.18055e-015 8.94531e-016 -1.98785e-016 6.36111e-015 1.49089e-016 -3.97569e-016 -0 6.4605e-016 0 3.18055e-015 5.96354e-016 0 3.18055e-015 8.94531e-016 -1.98785e-016 6.36111e-015 6.4605e-016 0 3.18055e-015 5.96354e-016 0 3.18055e-015 8.94531e-016 -1.98785e-016 6.36111e-015 0 0 -0 -1.4496 0.0636048 -5.0245 -1.74811 1.20616 -16.8394 -1.19271e-015 1.98785e-016 -3.18055e-015 -3.97569e-016 1.98785e-016 -3.18055e-015 -2.98177e-016 1.98785e-016 -3.18055e-015 -2.98177e-016 3.97569e-016 -0 4.96962e-016 0 -6.36111e-015 -9.93923e-017 3.97569e-016 -0 -8.94531e-016 5.96354e-016 -0 -3.97569e-016 3.97569e-016 -0 -9.93923e-017 3.97569e-016 -0 -8.94531e-016 5.96354e-016 -0 -3.97569e-016 3.97569e-016 -0 4.96962e-016 0 -6.36111e-015 -9.93923e-017 3.97569e-016 -0 -8.94531e-016 5.96354e-016 -0 -3.97569e-016 3.97569e-016 -0 -9.93923e-017 3.97569e-016 -0 -8.94531e-016 5.96354e-016 -0 -3.97569e-016 3.97569e-016 -0 -4.66111 -0.998717 0.12318 0.00986924 1.54847 0.176523 4.65186 -0.572283 -0.254274 4.66111 -0.998765 -0.123176 -0.00986867 1.54869 -0.176537 -4.65186 -0.572453 0.25427 
42.4086 -2.93807 -4.76319 -0 -72.0011 -0 -0.0122325 1.80157 -0.10902 -0.021049 3.60319 -0.217816 -0.0210491 3.60317 -0.217816 -6.27467e-006 17.9989 4.85843e-006 8.30271e-008 8.99856 5.23919e-008 -12.5289 25.6944 -22.1355 -39.6247 8.08702 -0.194608 1.07362 11.2094 6.637 13.8439 34.4661 -26.1459 3.18055e-015 2.38542e-015 -3.18055e-015 6.36111e-015 -7.95139e-016 -0 3.18055e-015 1.59028e-015 -3.18055e-015 0 1.59028e-015 -0 -9.54166e-015 7.15625e-015 1.27222e-014 0 0 -3.18055e-015 6.36111e-015 7.95139e-016 -0 -9.54166e-015 7.15625e-015 1.27222e-014 0 0 -3.18055e-015 6.36111e-015 7.95139e-016 -0 0 1.59028e-015 -0 -9.54166e-015 7.15625e-015 1.27222e-014 0 0 -3.18055e-015 6.36111e-015 7.95139e-016 -0 -9.54166e-015 7.15625e-015 1.27222e-014 0 0 -3.18055e-015 6.36111e-015 7.95139e-016 -0 13.6735 25.9931 21.902 39.0949 8.03238 0.800034 -3.02892 11.234 -7.57546 -14.0847 33.7158 27.5051 0 0 -3.18055e-015 -0 -7.95139e-016 -0 -8.82781e-032 -1.59028e-015 -3.18055e-015 0 0 -3.18055e-015 5.29669e-031 -9.54166e-015 3.18055e-015 -8.82781e-032 -1.59028e-015 -3.18055e-015 -3.18055e-015 -2.38542e-015 -0 5.29669e-031 -9.54166e-015 3.18055e-015 -8.82781e-032 -1.59028e-015 -3.18055e-015 -3.18055e-015 -2.38542e-015 -0 0 0 -3.18055e-015 5.29669e-031 -9.54166e-015 3.18055e-015 -8.82781e-032 -1.59028e-015 -3.18055e-015 -3.18055e-015 -2.38542e-015 -0 5.29669e-031 -9.54166e-015 3.18055e-015 -8.82781e-032 -1.59028e-015 -3.18055e-015 -3.18055e-015 -2.38542e-015 -0 135.037 -9.73555 178.573 167.822 62.6663 178.015 6.33146 65.7651 4.71807 -136.559 -20.7668 -166.538 -164.212 68.9425 157.915 -12.2537 64.8508 -0.874443 
42.4252 -2.95433 -4.64817 -0 -72.8876 -0 -0.0130912 2.02287 -0.108699 -0.0223605 4.0457 -0.217139 -0.0223605 4.04569 -0.217139 -4.7858e-006 17.6172 8.2308e-007 -5.09154e-008 8.42415 2.48177e-008 -11.0939 24.9617 -22.4551 -40.4824 8.21423 -0.160805 0.702544 11.2838 5.54772 13.1872 34.675 -25.2269 9.54166e-015 -2.38542e-015 -6.36111e-015 -2.64834e-031 -4.77083e-015 -3.18055e-015 6.36111e-015 -1.59028e-015 -3.18055e-015 6.36111e-015 0 -6.36111e-015 6.36111e-015 -4.77083e-015 6.36111e-015 -1.32417e-031 -2.38542e-015 -3.18055e-015 3.18055e-015 -1.59028e-015 -3.18055e-015 6.36111e-015 -4.77083e-015 6.36111e-015 -1.32417e-031 -2.38542e-015 -3.18055e-015 3.18055e-015 -1.59028e-015 -3.18055e-015 6.36111e-015 0 -6.36111e-015 6.36111e-015 -4.77083e-015 6.36111e-015 -1.32417e-031 -2.38542e-015 -3.18055e-015 3.18055e-015 -1.59028e-015 -3.18055e-015 6.36111e-015 -4.77083e-015 6.36111e-015 -1.32417e-031 -2.38542e-015 -3.18055e-015 3.18055e-015 -1.59028e-015 -3.18055e-015 12.1894 25.2454 22.2491 40.0089 8.16393 0.780977 -2.65276 11.2727 -6.503 -13.4627 33.9465 26.6031 -3.97252e-031 -7.15625e-015 -3.18055e-015 -6.62086e-031 -1.19271e-014 -3.18055e-015 -0 -8.74653e-015 -0 0 1.59028e-015 -0 -6.36111e-015 -9.54166e-015 9.54166e-015 -3.18055e-015 -1.11319e-014 -0 -0 -1.03368e-014 -0 -6.36111e-015 -9.54166e-015 9.54166e-015 -3.18055e-015 -1.11319e-014 -0 -0 -1.03368e-014 -0 0 1.59028e-015 -0 -6.36111e-015 -9.54166e-015 9.54166e-015 -3.18055e-015 -1.11319e-014 -0 -0 -1.03368e-014 -0 -6.36111e-015 -9.54166e-015 9.54166e-015 -3.18055e-015 -1.11319e-014 -0 -0 -1.03368e-014 -0 135.548 -10.3909 178.195 167.865 62.3996 178.55 6.39365 65.7911 4.70338 -136.412 -20.5619 -166.567 -163.275 67.881 155.598 -12.4419 64.8949 -0.803066 
42.4395 -2.9701 -4.53175 -0 -73.7749 -0 -0.0139525 2.24445 -0.10837 -0.0236801 4.48893 -0.216442 -0.0236802 4.48893 -0.216442 -1.45409e-007 17.2347 1.09074e-006 1.72736e-008 7.84879 5.63815e-009 -9.66764 24.2199 -22.7535 -41.3411 8.34104 -0.125016 0.3322 11.3653 4.45666 12.5244 34.8753 -24.3021 -6.36111e-015 -1.03368e-014 -0 -1.05934e-030 -9.54166e-015 -6.36111e-015 -6.36111e-015 -1.19271e-014 -3.18055e-015 -3.18055e-015 7.95139e-016 3.18055e-015 -3.18055e-015 7.95139e-015 9.54166e-015 -3.18055e-015 -1.11319e-014 -3.18055e-015 -3.18055e-015 -1.03368e-014 -3.18055e-015 -3.18055e-015 7.95139e-015 9.54166e-015 -3.18055e-015 -1.11319e-014 -3.18055e-015 -3.18055e-015 -1.03368e-014 -3.18055e-015 -3.18055e-015 7.95139e-016 3.18055e-015 -3.18055e-015 7.95139e-015 9.54166e-015 -3.18055e-015 -1.11319e-014 -3.18055e-015 -3.18055e-015 -1.03368e-014 -3.18055e-015 -3.18055e-015 7.95139e-015 9.54166e-015 -3.18055e-015 -1.11319e-014 -3.18055e-015 -3.18055e-015 -1.03368e-014 -3.18055e-015 10.7149 24.4876 22.5737 40.9242 8.29531 0.759778 -2.2767 11.3184 -5.42875 -12.8342 34.1691 25.6949 3.18055e-015 -6.36111e-015 -3.18055e-015 -0 -7.15625e-015 -0 -3.18055e-015 -7.15625e-015 3.18055e-015 3.18055e-015 7.95139e-016 -3.18055e-015 3.18055e-015 -8.74653e-015 9.54166e-015 -4.41391e-031 -7.95139e-015 -3.18055e-015 -3.18055e-015 -7.95139e-015 -6.36111e-015 3.18055e-015 -8.74653e-015 9.54166e-015 -4.41391e-031 -7.95139e-015 -3.18055e-015 -3.18055e-015 -7.95139e-015 -6.36111e-015 3.18055e-015 7.95139e-016 -3.18055e-015 3.18055e-015 -8.74653e-015 9.54166e-015 -4.41391e-031 -7.95139e-015 -3.18055e-015 -3.18055e-015 -7.95139e-015 -6.36111e-015 3.18055e-015 -8.74653e-015 9.54166e-015 -4.41391e-031 -7.95139e-015 -3.18055e-015 -3.18055e-015 -7.95139e-015 -6.36111e-015 136.056 -11.0486 177.82 167.913 62.1324 179.081 6.45565 65.8177 4.68819 -136.268 -20.3531 -166.6 -162.477 66.8043 153.407 -12.6363 64.9406 -0.729762 
